<svg width="1842" height="191" viewBox="0 0 1842 191" fill="none" xmlns="http://www.w3.org/2000/svg">
<g clip-path="url(#clip0_270_7517)">
<rect width="191" height="191" fill="#DD055E"/>
<path d="M112.663 146.196C116.602 143.79 120.46 141.371 124.412 139.074C125.433 138.479 126.684 138.114 127.853 137.965C129.493 137.763 131.173 137.817 132.84 137.857C146.376 138.276 159.792 140.006 173.167 142.047C177.536 142.709 181.488 142.642 185.278 140.06C190.185 136.722 194.285 132.573 197.82 127.829C198.102 127.45 198.264 126.964 198.385 126.504C199.433 122.152 200.482 117.8 201.423 113.421C201.53 112.908 201.221 112.043 200.818 111.691C199.245 110.38 197.605 109.15 195.911 108.015C184.324 100.257 171.688 94.6214 158.784 89.5531C157.56 89.0801 156.767 88.4584 156.162 87.2285C151.619 77.9299 145.409 70.3072 136.281 64.9686C124.264 57.9271 112.099 51.2369 99.7452 44.8306C97.4331 43.6278 95.2554 43.3169 92.8224 43.8846C91.3034 44.236 89.7441 44.3981 88.2654 44.8712C86.9481 45.3037 85.8593 45.0063 84.7435 44.3711C81.5846 42.5465 79.3129 39.8164 77.3234 36.8565C72.5648 29.7745 69.3387 21.949 66.583 13.9344C65.0103 9.36618 63.6526 4.71688 62.1739 0C61.8916 0.364916 61.6362 0.675771 61.3943 1.01366C56.5819 7.893 54.0548 15.7319 52.0788 23.7871C49.0139 36.3159 47.5218 49.061 46.8094 61.9141C46.7556 62.9548 46.3255 63.4954 45.492 64.0631C39.4699 68.1042 33.4746 72.1858 27.5197 76.3215C26.0142 77.3622 24.6699 78.6597 23.2585 79.8355L23.4063 80.214H27.9095C19.1317 87.3772 11.3889 95.3783 4.02256 104.028C4.89631 104.096 5.50121 104.136 6.34808 104.19C-0.0235707 111.462 -5.41393 119.138 -10.2666 127.383C-9.43318 127.869 -8.72074 128.288 -7.96797 128.734C-2.05336 118.895 4.41239 109.664 12.6794 101.555C11.6578 101.474 10.9453 101.406 10.1254 101.339C17.5052 92.2292 26.6863 85.3363 35.6388 77.4568H30.4367C31.2835 76.8081 31.7675 76.3756 32.2917 76.0242C37.5745 72.5237 42.8574 69.0097 48.1805 65.5768C48.987 65.0497 49.3097 64.5631 49.4172 63.563C50.385 54.0617 51.1781 44.5333 52.5224 35.086C53.7591 26.3686 55.9367 17.8403 59.5258 9.74461C60.0097 8.63635 60.5877 7.56863 61.2464 6.20358C61.6094 7.3659 61.8379 8.13628 62.0933 8.90666C65.2522 18.7999 68.8144 28.504 74.4199 37.3161C76.7185 40.9247 79.3532 44.2765 83.117 46.5065C84.9586 47.6013 86.7868 48.223 89.0451 47.4526C91.048 46.7633 93.2391 46.5876 95.3495 46.2633C95.8334 46.1822 96.4384 46.2633 96.882 46.4795C110.418 53.2778 123.699 60.5085 136.658 68.388C144.898 73.4022 149.912 80.7951 154.079 89.0531C154.778 90.4316 155.584 91.1615 156.942 91.7156C163.139 94.2835 169.349 96.8109 175.439 99.6221C183.195 103.217 190.682 107.312 197.592 112.435C198.519 113.124 198.721 113.746 198.438 114.84C197.672 117.76 196.96 120.706 196.368 123.666C196.005 125.477 195.226 126.991 194.043 128.369C190.279 132.721 186.314 136.803 180.977 139.182C180.076 139.587 179.014 139.966 178.087 139.857C168.865 138.763 159.684 137.411 150.449 136.425C144.105 135.749 137.72 135.465 131.348 135.1C127.517 134.87 123.982 135.627 120.755 138.019C117.959 140.087 114.827 141.709 111.843 143.52C109.545 144.912 109.558 144.912 110.351 147.588C111.682 152.075 112.986 156.563 114.37 161.266H108.846C112.193 167.132 115.728 172.646 118.067 178.768C117.933 178.917 117.812 179.052 117.677 179.201C115.755 178.201 113.833 177.214 111.588 176.052C112.569 177.701 113.389 178.971 114.088 180.296C118.484 188.716 123.041 197.095 121.132 207.272C121.791 207.556 122.516 207.854 123.498 208.259C126.038 198.447 121.804 190.202 118.148 181.863C120.648 180.971 121.159 179.998 120.446 177.647C120.272 177.079 120.083 176.511 119.815 175.984C118 172.43 116.158 168.902 114.33 165.361C114.102 164.915 113.873 164.469 113.51 163.766H117.892C116.131 157.806 114.438 152.021 112.704 146.156L112.663 146.196Z" stroke="white" stroke-width="10.5379" stroke-miterlimit="10"/>
</g>
<path d="M294.361 77.1245C294.361 73.0542 295.139 69.2354 296.694 65.6682C298.249 62.1009 300.353 58.991 303.005 56.3384C305.703 53.6401 308.836 51.5135 312.404 49.9585C315.971 48.4036 319.79 47.6261 323.86 47.6261H368.999V67.3146H323.86C322.488 67.3146 321.207 67.5661 320.018 68.0692C318.829 68.5723 317.777 69.2812 316.863 70.1958C315.994 71.0648 315.308 72.0938 314.805 73.2829C314.301 74.472 314.05 75.7525 314.05 77.1245C314.05 78.4966 314.301 79.8 314.805 81.0348C315.308 82.2239 315.994 83.2758 316.863 84.1905C317.777 85.0594 318.829 85.7454 320.018 86.2485C321.207 86.7516 322.488 87.0031 323.86 87.0031H343.548C347.619 87.0031 351.438 87.7806 355.005 89.3355C358.618 90.8448 361.751 92.9485 364.403 95.6468C367.101 98.2994 369.205 101.432 370.714 105.045C372.269 108.612 373.047 112.431 373.047 116.502C373.047 120.572 372.269 124.391 370.714 127.958C369.205 131.525 367.101 134.658 364.403 137.356C361.751 140.009 358.618 142.113 355.005 143.668C351.438 145.223 347.619 146 343.548 146H299.85V126.311H343.548C344.92 126.311 346.201 126.06 347.39 125.557C348.579 125.054 349.608 124.368 350.477 123.499C351.392 122.584 352.101 121.532 352.604 120.343C353.107 119.154 353.358 117.874 353.358 116.502C353.358 115.13 353.107 113.849 352.604 112.66C352.101 111.471 351.392 110.442 350.477 109.573C349.608 108.658 348.579 107.949 347.39 107.446C346.201 106.943 344.92 106.692 343.548 106.692H323.86C319.79 106.692 315.971 105.914 312.404 104.359C308.836 102.804 305.703 100.7 303.005 98.0479C300.353 95.3496 298.249 92.2168 296.694 88.6495C295.139 85.0365 294.361 81.1949 294.361 77.1245ZM461.183 135.916C456.61 139.849 451.488 142.867 445.817 144.971C440.146 147.075 434.269 148.127 428.186 148.127C423.521 148.127 419.017 147.509 414.672 146.274C410.373 145.085 406.325 143.393 402.529 141.198C398.779 138.957 395.349 136.282 392.239 133.172C389.129 130.062 386.454 126.632 384.213 122.881C382.018 119.086 380.303 115.038 379.068 110.739C377.879 106.394 377.284 101.89 377.284 97.2247C377.284 92.5598 377.879 88.055 379.068 83.7102C380.303 79.3655 382.018 75.3181 384.213 71.5679C386.454 67.7719 389.129 64.319 392.239 61.2091C395.349 58.0992 398.779 55.4466 402.529 53.2514C406.325 51.0104 410.373 49.2954 414.672 48.1063C419.017 46.8715 423.521 46.2541 428.186 46.2541C434.269 46.2541 440.146 47.306 445.817 49.4097C451.488 51.4678 456.61 54.4862 461.183 58.4651L450.756 75.6153C447.875 72.5054 444.468 70.1272 440.534 68.4808C436.601 66.7887 432.485 65.9426 428.186 65.9426C423.842 65.9426 419.771 66.7658 415.975 68.4122C412.179 70.0586 408.864 72.2996 406.028 75.1351C403.193 77.9249 400.952 81.2406 399.305 85.0823C397.659 88.8782 396.836 92.9257 396.836 97.2247C396.836 101.524 397.659 105.571 399.305 109.367C400.952 113.117 403.193 116.41 406.028 119.246C408.864 122.081 412.179 124.322 415.975 125.968C419.771 127.615 423.842 128.438 428.186 128.438C432.485 128.438 436.601 127.615 440.534 125.968C444.468 124.276 447.875 121.875 450.756 118.765L461.183 135.916ZM546.85 106.692C546.85 112.134 545.821 117.256 543.763 122.058C541.705 126.815 538.893 130.976 535.325 134.544C531.758 138.065 527.573 140.855 522.771 142.913C518.015 144.971 512.916 146 507.473 146C502.031 146 496.909 144.971 492.107 142.913C487.35 140.855 483.188 138.065 479.621 134.544C476.1 130.976 473.31 126.815 471.252 122.058C469.194 117.256 468.165 112.134 468.165 106.692V47.6261H487.785V106.692C487.785 109.39 488.288 111.928 489.294 114.306C490.346 116.684 491.764 118.765 493.547 120.549C495.331 122.333 497.412 123.75 499.79 124.802C502.214 125.808 504.775 126.311 507.473 126.311C510.172 126.311 512.71 125.808 515.088 124.802C517.512 123.75 519.616 122.333 521.399 120.549C523.183 118.765 524.578 116.684 525.584 114.306C526.636 111.928 527.162 109.39 527.162 106.692V47.6261H546.85V106.692ZM656.939 97.2247C656.939 101.89 656.322 106.394 655.087 110.739C653.898 115.038 652.206 119.086 650.01 122.881C647.815 126.632 645.163 130.062 642.053 133.172C638.943 136.282 635.513 138.957 631.763 141.198C628.012 143.393 623.965 145.085 619.62 146.274C615.275 147.509 610.771 148.127 606.106 148.127C601.441 148.127 596.936 147.509 592.591 146.274C588.292 145.085 584.245 143.393 580.449 141.198C576.699 138.957 573.269 136.282 570.159 133.172C567.049 130.062 564.373 126.632 562.132 122.881C559.937 119.086 558.222 115.038 556.987 110.739C555.798 106.394 555.204 101.89 555.204 97.2247C555.204 92.5598 555.798 88.055 556.987 83.7102C558.222 79.3655 559.937 75.3181 562.132 71.5679C564.373 67.8177 567.049 64.3876 570.159 61.2777C573.269 58.1678 576.699 55.5152 580.449 53.32C584.245 51.1247 588.292 49.4326 592.591 48.2435C596.936 47.0087 601.441 46.3913 606.106 46.3913C610.771 46.3913 615.275 47.0087 619.62 48.2435C623.965 49.4326 628.012 51.1247 631.763 53.32C635.513 55.5152 638.943 58.1678 642.053 61.2777C645.163 64.3876 647.815 67.8177 650.01 71.5679C652.206 75.3181 653.898 79.3655 655.087 83.7102C656.322 88.055 656.939 92.5598 656.939 97.2247ZM637.388 97.2247C637.388 92.9257 636.565 88.8782 634.918 85.0823C633.272 81.2406 631.031 77.9249 628.195 75.1351C625.405 72.2996 622.09 70.0586 618.248 68.4122C614.452 66.7658 610.405 65.9426 606.106 65.9426C601.761 65.9426 597.691 66.7658 593.895 68.4122C590.099 70.0586 586.783 72.2996 583.948 75.1351C581.112 77.9249 578.871 81.2406 577.225 85.0823C575.578 88.8782 574.755 92.9257 574.755 97.2247C574.755 101.524 575.578 105.571 577.225 109.367C578.871 113.117 581.112 116.41 583.948 119.246C586.783 122.081 590.099 124.322 593.895 125.968C597.691 127.615 601.761 128.438 606.106 128.438C610.405 128.438 614.452 127.615 618.248 125.968C622.09 124.322 625.405 122.081 628.195 119.246C631.031 116.41 633.272 113.117 634.918 109.367C636.565 105.571 637.388 101.524 637.388 97.2247ZM735.403 146H666.527V47.6261H686.216V126.311H735.403V146ZM800.215 106.692V87.0031C800.215 84.3048 799.689 81.7666 798.637 79.3884C797.631 76.9645 796.236 74.8607 794.453 73.0771C792.669 71.2935 790.565 69.8986 788.141 68.8924C785.763 67.8405 783.225 67.3146 780.527 67.3146C777.828 67.3146 775.267 67.8405 772.843 68.8924C770.465 69.8986 768.384 71.2935 766.601 73.0771C764.817 74.8607 763.399 76.9645 762.347 79.3884C761.341 81.7666 760.838 84.3048 760.838 87.0031V106.692H800.215ZM819.904 146H800.215V126.311H760.838V146H741.218V87.0031C741.218 81.5607 742.247 76.4614 744.305 71.7051C746.363 66.903 749.153 62.7183 752.675 59.1511C756.242 55.5838 760.404 52.7712 765.16 50.7131C769.962 48.6551 775.084 47.6261 780.527 47.6261C785.969 47.6261 791.068 48.6551 795.825 50.7131C800.627 52.7712 804.811 55.5838 808.379 59.1511C811.946 62.7183 814.758 66.903 816.816 71.7051C818.875 76.4614 819.904 81.5607 819.904 87.0031V146ZM947.881 136.053C943.308 139.94 938.209 142.936 932.583 145.04C926.958 147.098 921.104 148.127 915.022 148.127C910.357 148.127 905.852 147.509 901.507 146.274C897.208 145.085 893.184 143.393 889.433 141.198C885.683 138.957 882.253 136.304 879.143 133.24C876.033 130.13 873.381 126.7 871.185 122.95C868.99 119.154 867.275 115.084 866.04 110.739C864.851 106.394 864.257 101.89 864.257 97.2247C864.257 92.5598 864.851 88.0778 866.04 83.7788C867.275 79.4798 868.99 75.4553 871.185 71.7051C873.381 67.9091 876.033 64.4791 879.143 61.4149C882.253 58.305 885.683 55.6524 889.433 53.4572C893.184 51.262 897.208 49.5698 901.507 48.3807C905.852 47.1459 910.357 46.5285 915.022 46.5285C921.104 46.5285 926.958 47.5804 932.583 49.6841C938.209 51.7422 943.308 54.7149 947.881 58.6023L937.591 75.7525C934.619 72.7341 931.189 70.3788 927.301 68.6866C923.414 66.9487 919.321 66.0798 915.022 66.0798C910.723 66.0798 906.675 66.903 902.879 68.5494C899.129 70.1958 895.836 72.4368 893.001 75.2723C890.165 78.0621 887.924 81.3549 886.278 85.1509C884.631 88.9011 883.808 92.9257 883.808 97.2247C883.808 101.569 884.631 105.64 886.278 109.436C887.924 113.232 890.165 116.547 893.001 119.383C895.836 122.218 899.129 124.459 902.879 126.106C906.675 127.752 910.723 128.575 915.022 128.575C917.491 128.575 919.892 128.278 922.225 127.684C924.557 127.089 926.775 126.266 928.879 125.214V97.2247H947.881V136.053ZM1037.25 106.692C1037.25 112.134 1036.22 117.256 1034.17 122.058C1032.11 126.815 1029.3 130.976 1025.73 134.544C1022.16 138.065 1017.98 140.855 1013.17 142.913C1008.42 144.971 1003.32 146 997.876 146C992.433 146 987.311 144.971 982.509 142.913C977.753 140.855 973.591 138.065 970.024 134.544C966.502 130.976 963.712 126.815 961.654 122.058C959.596 117.256 958.567 112.134 958.567 106.692V47.6261H978.187V106.692C978.187 109.39 978.69 111.928 979.697 114.306C980.748 116.684 982.166 118.765 983.95 120.549C985.733 122.333 987.814 123.75 990.192 124.802C992.616 125.808 995.177 126.311 997.876 126.311C1000.57 126.311 1003.11 125.808 1005.49 124.802C1007.91 123.75 1010.02 122.333 1011.8 120.549C1013.59 118.765 1014.98 116.684 1015.99 114.306C1017.04 111.928 1017.56 109.39 1017.56 106.692V47.6261H1037.25V106.692ZM1070.65 146H1050.96V47.6261H1070.65V146ZM1164.41 96.813C1164.41 101.341 1163.81 105.708 1162.62 109.916C1161.48 114.078 1159.83 117.988 1157.68 121.647C1155.54 125.26 1152.97 128.575 1150 131.594C1147.03 134.566 1143.71 137.128 1140.05 139.277C1136.4 141.427 1132.46 143.096 1128.25 144.285C1124.09 145.428 1119.75 146 1115.22 146H1085.58V47.6261H1115.22C1119.75 47.6261 1124.09 48.2206 1128.25 49.4097C1132.46 50.5531 1136.4 52.1995 1140.05 54.349C1143.71 56.4985 1147.03 59.0825 1150 62.1009C1152.97 65.0736 1155.54 68.3893 1157.68 72.0481C1159.83 75.6611 1161.48 79.5713 1162.62 83.7788C1163.81 87.9406 1164.41 92.2854 1164.41 96.813ZM1144.72 96.813C1144.72 92.7427 1143.94 88.9239 1142.39 85.3567C1140.88 81.7894 1138.77 78.6795 1136.08 76.0269C1133.42 73.3286 1130.29 71.202 1126.68 69.647C1123.11 68.0921 1119.29 67.3146 1115.22 67.3146H1105.41V126.311H1115.22C1119.29 126.311 1123.11 125.557 1126.68 124.048C1130.29 122.493 1133.42 120.389 1136.08 117.736C1138.77 115.038 1140.88 111.905 1142.39 108.338C1143.94 104.725 1144.72 100.883 1144.72 96.813ZM1232.03 106.692V87.0031C1232.03 84.3048 1231.51 81.7666 1230.45 79.3884C1229.45 76.9645 1228.05 74.8607 1226.27 73.0771C1224.49 71.2935 1222.38 69.8986 1219.96 68.8924C1217.58 67.8405 1215.04 67.3146 1212.34 67.3146C1209.65 67.3146 1207.08 67.8405 1204.66 68.8924C1202.28 69.8986 1200.2 71.2935 1198.42 73.0771C1196.63 74.8607 1195.22 76.9645 1194.16 79.3884C1193.16 81.7666 1192.66 84.3048 1192.66 87.0031V106.692H1232.03ZM1251.72 146H1232.03V126.311H1192.66V146H1173.04V87.0031C1173.04 81.5607 1174.06 76.4614 1176.12 71.7051C1178.18 66.903 1180.97 62.7183 1184.49 59.1511C1188.06 55.5838 1192.22 52.7712 1196.98 50.7131C1201.78 48.6551 1206.9 47.6261 1212.34 47.6261C1217.79 47.6261 1222.89 48.6551 1227.64 50.7131C1232.44 52.7712 1236.63 55.5838 1240.2 59.1511C1243.76 62.7183 1246.58 66.903 1248.63 71.7051C1250.69 76.4614 1251.72 81.5607 1251.72 87.0031V146ZM1370.3 146H1301.42V47.6261H1321.11V126.311H1370.3V146ZM1451.37 106.692C1451.37 112.134 1450.34 117.256 1448.28 122.058C1446.23 126.815 1443.41 130.976 1439.85 134.544C1436.28 138.065 1432.09 140.855 1427.29 142.913C1422.54 144.971 1417.44 146 1411.99 146C1406.55 146 1401.43 144.971 1396.63 142.913C1391.87 140.855 1387.71 138.065 1384.14 134.544C1380.62 130.976 1377.83 126.815 1375.77 122.058C1373.71 117.256 1372.69 112.134 1372.69 106.692V47.6261H1392.31V106.692C1392.31 109.39 1392.81 111.928 1393.81 114.306C1394.87 116.684 1396.28 118.765 1398.07 120.549C1399.85 122.333 1401.93 123.75 1404.31 124.802C1406.73 125.808 1409.3 126.311 1411.99 126.311C1414.69 126.311 1417.23 125.808 1419.61 124.802C1422.03 123.75 1424.14 122.333 1425.92 120.549C1427.7 118.765 1429.1 116.684 1430.1 114.306C1431.16 111.928 1431.68 109.39 1431.68 106.692V47.6261H1451.37V106.692ZM1543.35 136.053C1538.78 139.94 1533.68 142.936 1528.05 145.04C1522.43 147.098 1516.57 148.127 1510.49 148.127C1505.82 148.127 1501.32 147.509 1496.97 146.274C1492.68 145.085 1488.65 143.393 1484.9 141.198C1481.15 138.957 1477.72 136.304 1474.61 133.24C1471.5 130.13 1468.85 126.7 1466.65 122.95C1464.46 119.154 1462.74 115.084 1461.51 110.739C1460.32 106.394 1459.72 101.89 1459.72 97.2247C1459.72 92.5598 1460.32 88.0778 1461.51 83.7788C1462.74 79.4798 1464.46 75.4553 1466.65 71.7051C1468.85 67.9091 1471.5 64.4791 1474.61 61.4149C1477.72 58.305 1481.15 55.6524 1484.9 53.4572C1488.65 51.262 1492.68 49.5698 1496.97 48.3807C1501.32 47.1459 1505.82 46.5285 1510.49 46.5285C1516.57 46.5285 1522.43 47.5804 1528.05 49.6841C1533.68 51.7422 1538.78 54.7149 1543.35 58.6023L1533.06 75.7525C1530.09 72.7341 1526.66 70.3788 1522.77 68.6866C1518.88 66.9487 1514.79 66.0798 1510.49 66.0798C1506.19 66.0798 1502.14 66.903 1498.35 68.5494C1494.6 70.1958 1491.3 72.4368 1488.47 75.2723C1485.63 78.0621 1483.39 81.3549 1481.75 85.1509C1480.1 88.9011 1479.28 92.9257 1479.28 97.2247C1479.28 101.569 1480.1 105.64 1481.75 109.436C1483.39 113.232 1485.63 116.547 1488.47 119.383C1491.3 122.218 1494.6 124.459 1498.35 126.106C1502.14 127.752 1506.19 128.575 1510.49 128.575C1512.96 128.575 1515.36 128.278 1517.69 127.684C1520.02 127.089 1522.24 126.266 1524.35 125.214V97.2247H1543.35V136.053ZM1613.03 106.692V87.0031C1613.03 84.3048 1612.51 81.7666 1611.45 79.3884C1610.45 76.9645 1609.05 74.8607 1607.27 73.0771C1605.49 71.2935 1603.38 69.8986 1600.96 68.8924C1598.58 67.8405 1596.04 67.3146 1593.34 67.3146C1590.65 67.3146 1588.08 67.8405 1585.66 68.8924C1583.28 69.8986 1581.2 71.2935 1579.42 73.0771C1577.63 74.8607 1576.22 76.9645 1575.16 79.3884C1574.16 81.7666 1573.65 84.3048 1573.65 87.0031V106.692H1613.03ZM1632.72 146H1613.03V126.311H1573.65V146H1554.03V87.0031C1554.03 81.5607 1555.06 76.4614 1557.12 71.7051C1559.18 66.903 1561.97 62.7183 1565.49 59.1511C1569.06 55.5838 1573.22 52.7712 1577.98 50.7131C1582.78 48.6551 1587.9 47.6261 1593.34 47.6261C1598.79 47.6261 1603.89 48.6551 1608.64 50.7131C1613.44 52.7712 1617.63 55.5838 1621.2 59.1511C1624.76 62.7183 1627.58 66.903 1629.63 71.7051C1631.69 76.4614 1632.72 81.5607 1632.72 87.0031V146ZM1725.11 146H1704.05L1666.11 81.2406V146H1646.42V47.6261H1667.49L1705.42 112.454V47.6261H1725.11V146ZM1836.43 97.2247C1836.43 101.89 1835.82 106.394 1834.58 110.739C1833.39 115.038 1831.7 119.086 1829.51 122.881C1827.31 126.632 1824.66 130.062 1821.55 133.172C1818.44 136.282 1815.01 138.957 1811.26 141.198C1807.51 143.393 1803.46 145.085 1799.11 146.274C1794.77 147.509 1790.27 148.127 1785.6 148.127C1780.94 148.127 1776.43 147.509 1772.09 146.274C1767.79 145.085 1763.74 143.393 1759.94 141.198C1756.19 138.957 1752.76 136.282 1749.65 133.172C1746.54 130.062 1743.87 126.632 1741.63 122.881C1739.43 119.086 1737.72 115.038 1736.48 110.739C1735.29 106.394 1734.7 101.89 1734.7 97.2247C1734.7 92.5598 1735.29 88.055 1736.48 83.7102C1737.72 79.3655 1739.43 75.3181 1741.63 71.5679C1743.87 67.8177 1746.54 64.3876 1749.65 61.2777C1752.76 58.1678 1756.19 55.5152 1759.94 53.32C1763.74 51.1247 1767.79 49.4326 1772.09 48.2435C1776.43 47.0087 1780.94 46.3913 1785.6 46.3913C1790.27 46.3913 1794.77 47.0087 1799.11 48.2435C1803.46 49.4326 1807.51 51.1247 1811.26 53.32C1815.01 55.5152 1818.44 58.1678 1821.55 61.2777C1824.66 64.3876 1827.31 67.8177 1829.51 71.5679C1831.7 75.3181 1833.39 79.3655 1834.58 83.7102C1835.82 88.055 1836.43 92.5598 1836.43 97.2247ZM1816.88 97.2247C1816.88 92.9257 1816.06 88.8782 1814.41 85.0823C1812.77 81.2406 1810.53 77.9249 1807.69 75.1351C1804.9 72.2996 1801.58 70.0586 1797.74 68.4122C1793.95 66.7658 1789.9 65.9426 1785.6 65.9426C1781.26 65.9426 1777.19 66.7658 1773.39 68.4122C1769.59 70.0586 1766.28 72.2996 1763.44 75.1351C1760.61 77.9249 1758.37 81.2406 1756.72 85.0823C1755.07 88.8782 1754.25 92.9257 1754.25 97.2247C1754.25 101.524 1755.07 105.571 1756.72 109.367C1758.37 113.117 1760.61 116.41 1763.44 119.246C1766.28 122.081 1769.59 124.322 1773.39 125.968C1777.19 127.615 1781.26 128.438 1785.6 128.438C1789.9 128.438 1793.95 127.615 1797.74 125.968C1801.58 124.322 1804.9 122.081 1807.69 119.246C1810.53 116.41 1812.77 113.117 1814.41 109.367C1816.06 105.571 1816.88 101.524 1816.88 97.2247Z" fill="white"/>
<defs>
<clipPath id="clip0_270_7517">
<rect width="191" height="191" fill="white"/>
</clipPath>
</defs>
</svg>
